<svg width="1" height="1" viewBox="0 0 1 1" fill="none" xmlns="http://www.w3.org/2000/svg">
<g id="CaretDown">
<path id="Vector" d="M0.00654991 0.0110282C0.00636677 0.0108451 0.00611838 0.0107422 0.00585938 0.0107422C0.00560037 0.0107422 0.00535198 0.0108451 0.00516884 0.0110282C0.0049857 0.0112114 0.00488281 0.0114597 0.00488281 0.0117188C0.00488281 0.0119778 0.0049857 0.0122261 0.00516884 0.0124093L0.0149345 0.0221749C0.0153158 0.0225563 0.0159342 0.0225563 0.0163155 0.0221749L0.0260812 0.0124093C0.0262643 0.0122261 0.0263672 0.0119778 0.0263672 0.0117188C0.0263672 0.0114597 0.0262643 0.0112114 0.0260812 0.0110282C0.025898 0.0108451 0.0256496 0.0107422 0.0253906 0.0107422C0.0251316 0.0107422 0.0248832 0.0108451 0.0247001 0.0110282L0.015625 0.0201033L0.00654991 0.0110282Z" fill="#1C1C1C"/>
</g>
</svg>
