<svg width="1" height="1" viewBox="0 0 1 1" fill="none" xmlns="http://www.w3.org/2000/svg">
<g id="CaretRight">
<path id="Vector" d="M0.0201033 0.015625L0.0110282 0.0247001C0.0108451 0.0248832 0.0107422 0.0251316 0.0107422 0.0253906C0.0107422 0.0256496 0.0108451 0.025898 0.0110282 0.0260812C0.0112114 0.0262643 0.0114597 0.0263672 0.0117188 0.0263672C0.0119778 0.0263672 0.0122261 0.0262643 0.0124093 0.0260812L0.0221749 0.0163155C0.0225563 0.0159342 0.0225563 0.0153158 0.0221749 0.0149345L0.0124093 0.00516884C0.0122261 0.0049857 0.0119778 0.00488281 0.0117188 0.00488281C0.0114597 0.00488281 0.0112114 0.0049857 0.0110282 0.00516884C0.0108451 0.00535198 0.0107422 0.00560037 0.0107422 0.00585938C0.0107422 0.00611838 0.0108451 0.00636677 0.0110282 0.00654991L0.0201033 0.015625Z" fill="#1C1C1C"/>
</g>
</svg>
